<svg version="1" xmlns="http://www.w3.org/2000/svg" width="800" height="800" viewBox="0 0 600.000000 600.000000"><path d="M0 300v300h600V0H0v300zm246.2-110.2c24 33.4 45.8 63.5 48.3 67l4.6 6.3 48.2-67 48.2-67 70.3-.1H536v96h-36v149h36v96l-89.2-.2-89.3-.3-.3-47.8-.2-47.7h39v-48.1c0-26.4-.3-47.8-.7-47.5-.5.2-22.2 29.9-48.3 66-26.1 36-47.7 65.5-48 65.5-.3 0-21.9-29.5-48-65.5-26.1-36.1-47.8-65.8-48.2-66-.5-.3-.8 21.1-.8 47.5V374h39l-.2 47.7-.3 47.8-89.2.3-89.3.2v-96h36V225H62v-96h140.5l43.7 60.8z"/></svg>