<svg xmlns="http://www.w3.org/2000/svg" viewBox="0 0 600 514.627"><path fill="#f4b824" d="M299.295 231.516l-80.31-109.792v79.839h31.922v78.896H103.199v-78.896h29.952V78.833h-29.952V0h116.055l80.041 110.545L379.37 0h115.971v78.833h-29.97v122.73h29.97v78.896H347.65v-78.896h31.922v-79.839l-80.277 109.792z"/><path d="M550.75 513.8520000000001v-1.583c1.987-.134 3.536-.253 3.536-1.919 0-.522-.169-1.162-.337-1.717l-.876-2.997h-10.304l-.909 2.526c-.202.656-.403 1.212-.403 1.818 0 2.088 2.222 2.222 4.007 2.29v1.583h-12.055v-1.583c3.064-.134 4.04-.74 5.185-3.805l7.913-21.685-.472-.707c3.367-1.111 4.344-1.65 5.826-2.694.539 1.952.64 2.222 1.279 4.31l6.499 19.867c1.146 3.502 1.684 4.377 4.782 4.714v1.583H550.75v-.001zm-2.627-23.469l-4.277 12.122h8.419l-4.142-12.122zm-101.76 16.988c-1.313 2.088-4.411 7.257-12.493 7.257-8.788 0-14.48-6.499-14.48-15.018 0-7.913 4.815-15.725 14.681-15.725 5.22 0 7.947 2.239 9.664 3.535l1.987-1.818.168 8.856-1.313.286c-.505-1.717-1.246-3.115-3.132-5.169-.909-.926-3.064-2.862-6.128-2.862-5.287 0-9.463 4.31-9.463 11.887 0 6.432 3.435 12.459 10.203 12.459 5.085 0 7.038-2.828 8.553-5.017l1.753 1.329zm4.916 6.481v-1.583c3.334-.253 3.368-.993 3.368-3.805.034-1.044.034-2.088.034-3.097V493.11c0-1.903 0-3.805-.135-4.714-.168-1.751-.976-1.987-3.266-2.189v-1.583h12.527v1.583c-2.459.253-3.368.32-3.671 1.92-.203.942-.236 3.097-.236 4.865v4.024c2.526.134 4.31.219 6.735.219 2.491 0 4.445-.084 6.937-.219V492.1c-.034-5.32-.067-5.539-4.041-5.893v-1.583h12.662v1.583c-3.402.404-3.402.438-3.402 6.011v12.307c0 1.145.068 4.849.169 5.741.202 1.498 1.078 1.802 3.233 2.003v1.583H469.53v-1.583c2.93-.336 3.704-.403 3.974-2.408.067-.859.067-1.97.067-4.091v-5.388c-2.324-.067-4.243-.168-6.634-.168-2.525 0-4.512.067-7.038.168v5.388c.034 6.095.135 6.095 3.907 6.499v1.583h-12.527zm36.064 0v-1.583c2.896-.37 3.435-.707 3.503-3.771v-15.574c-.067-6.061-.067-6.246-3.503-6.735v-1.599h12.156v1.599c-3.401.337-3.401.489-3.401 6.735v11.802c0 1.044.034 4.31.101 5.186.202 1.784 1.044 2.189 3.3 2.357v1.583h-12.156zm-83.274 0v-1.583c2.862-.37 3.434-.707 3.468-3.771v-15.574c-.034-6.061-.034-6.246-3.468-6.735v-1.599h12.156v1.599c-3.468.337-3.468.489-3.468 6.735v11.802c0 1.044.067 4.31.135 5.186.236 1.784 1.044 2.189 3.333 2.357v1.583h-12.156zm-18.436 0v-1.583c3.721-.219 3.721-.403 3.754-5.825v-14.716l-10.237 22.494h-2.559l-9.395-22.796-.202 17.207c0 2.862.337 3.417 3.434 3.636v1.583h-10.136v-1.583c2.358-.134 3.267-.472 3.402-2.408.134-.825.235-3.266.269-4.899l.404-12.224c.034-.977.034-2.357.034-3.384 0-2.896-.539-3.148-3.165-3.165v-1.599h9.193l9.125 22.19 10.001-22.19h8.889v1.751c-3.468.219-3.502.606-3.468 5.135v12.038c0 2.037.067 4.496.134 6.011.202 2.121 1.01 2.525 3.333 2.744v1.583h-12.81zm180.674 0v-1.583c2.424-.134 3.333-.168 3.671-1.852.403-1.92.505-19.244.572-22.291-1.616-1.482-2.29-1.785-4.243-1.92v-1.583h8.788c2.459 3.468 2.964 4.243 7.274 9.597l8.182 10.102v-13.099c-.034-4.613-.168-4.883-4.782-5.017v-1.583h11.516v1.583c-3.199 0-3.468.69-3.535 5.455l-.404 22.561h-1.751l-2.627-3.25c-1.314-1.7-2.66-3.333-3.973-4.966l-11.55-14.244v15.17c0 4.714.337 4.865 4.782 5.337v1.583h-11.92zm-243.895-14.647c0 10.069-6.87 15.389-14.614 15.389-8.52 0-15.153-6.145-15.153-15.456 0-7.963 5.354-15.17 14.749-15.136 8.856.033 15.018 6.313 15.018 15.203zM307.798 511.9c1.684-.067 4.007-.876 5.792-3.637 2.088-3.165 2.525-6.061 2.39-9.883-.101-3.754-1.145-6.987-3.333-9.311-.909-1.01-2.761-2.458-5.22-2.39-2.424 0-4.243 1.515-5.151 2.559-2.054 2.357-3.031 5.623-3.031 9.394 0 3.805.505 6.735 2.694 9.816 1.885 2.711 4.209 3.452 5.859 3.452zm17.544.336v1.616h12.122v-1.616c-3.031-.303-3.401-.589-3.502-3.771l.034-8.334h3.233c3.266 0 5.017.286 5.219 3.603h1.415v-9.664h-1.415c-.168 3.115-1.01 3.452-4.579 3.452h-3.872v-10.136c1.044-.118 1.616-.118 3.502-.118 5.691 0 7.543-.034 8.318 4.496h1.447l-.438-7.138h-21.483v1.583c2.104.202 3.03.32 3.333 1.701.202.892.235 4.125.235 5.27v10.304c0 .774-.034 4.31-.101 4.983-.068 3.18-.438 3.466-3.468 3.769zm-251.304 1.415v-1.583c2.896-.371 3.435-.707 3.502-3.771V492.74c-.067-6.095-.067-6.28-3.502-6.768v-1.566h12.156v1.566c-3.435.336-3.435.488-3.435 6.768v11.786c0 1.027.034 4.31.135 5.186.202 1.784 1.044 2.155 3.3 2.34v1.6H74.038v-.001zm128.834 0v-1.583c2.829-.371 3.435-.707 3.435-3.771V492.74c0-6.095 0-6.28-3.435-6.768v-1.566h12.123v1.566c-3.469.336-3.469.488-3.469 6.768v11.786c0 1.027.067 4.31.135 5.186.202 1.784 1.044 2.155 3.334 2.34v1.6h-12.123v-.001zm-164.393 0v-1.583c2.391-.134 3.3-.168 3.637-1.802.404-1.97.505-19.311.539-22.325-1.583-1.482-2.256-1.785-4.176-1.97v-1.566h8.755c2.425 3.502 2.997 4.31 7.274 9.631l8.182 10.102v-13.116c-.034-4.614-.168-4.833-4.815-5.051v-1.549h11.517v1.549c-3.199.067-3.469.707-3.502 5.455l-.438 22.595h-1.717l-2.627-3.266c-1.313-1.667-2.66-3.301-3.973-4.951l-11.55-14.227v15.136c0 4.714.337 4.9 4.815 5.337v1.6H38.479v.001zm140.215-9.126l1.482-.168c1.616 4.798 4.31 7.34 8.688 7.34 3.098 0 5.859-1.346 5.859-4.478 0-3.3-3.165-4.596-4.613-5.22-1.146-.421-2.391-.825-3.57-1.279-2.39-.876-6.903-2.711-6.903-8.419 0-5.438 4.31-8.52 9.327-8.52 1.953 0 4.209.404 6.701 2.004l1.784-1.297.977 8.688-1.482.269c-.505-1.869-.875-2.761-2.02-4.31-1.381-1.818-3.368-2.677-5.691-2.677-3.132 0-4.95 1.515-4.95 3.822 0 3.468 3.434 4.646 6.701 5.724 1.684.556 3.031.977 4.209 1.684 2.357 1.397 4.243 3.957 4.243 7.459 0 5.051-4.142 9.243-10.304 9.243-3.974 0-6.432-1.583-7.576-2.34l-2.425-1.767-.437-5.758zm48.053 9.126v-1.263c2.694-.034 3.434-1.027 3.434-3.351v-21.5h-3.637c-3.3 0-5.489-.152-5.758 5.084h-1.515l.235-8.216h26.568l.236 8.216h-1.549c-.235-5.236-2.424-5.084-5.725-5.084H235.4v21.5c0 2.324.74 3.317 3.434 3.351v1.263h-12.087zm-210.66-29.246v1.566c-3.873.269-3.873.437-3.94 6.683v6.836c0 3.57.101 6.617 1.953 9.344 1.515 2.189 4.04 2.475 5.32 2.475 4.176 0 6.499-2.155 7.509-5.64.808-2.727.841-7.845.841-11.23 0-1.078 0-4.563-.034-5.539-.168-2.66-1.549-2.711-4.141-2.929v-1.566h11.112v1.566c-2.727-.068-3.3.589-3.468 3.468-.034.707-.371 8.822-.404 10.102-.067 2.189-.202 4.411-.707 6.533-1.987 7.845-9.631 8.283-11.685 8.283-1.583 0-4.916-.253-7.644-2.088-4.344-2.929-4.411-7.34-4.411-12.055v-6.633c-.034-3.115-.034-4.529-.135-5.27-.235-1.852-1.145-2.189-3.333-2.34v-1.566h13.167zm103.646 0v1.566c-2.795.437-3.199 1.228-5.589 7.02l-8.924 21.231h-1.549l-8.014-21.568c-1.986-5.539-2.222-6.195-5.152-6.683v-1.566h13.839v1.566c-2.357.101-3.872.184-3.872 1.852 0 .892.203 1.565 1.01 4.024l5.085 14.833 5.96-15.355c.37-1.043.875-2.34.875-3.081 0-2.121-2.088-2.239-3.906-2.272v-1.566h10.237v-.001zm138.598 29.246v-1.583c2.29-.27 3.165-.337 3.738-.909.673-.673.673-1.414.707-4.563v-5.169l-7.745-12.038c-2.155-3.182-2.189-3.233-4.983-3.417v-1.6h15.186v1.6c-3.031.101-4.411.184-4.411 1.599 0 .774.539 1.667 1.279 2.929l4.479 7.325 4.141-7.307c.708-1.448 1.145-2.323 1.145-2.98 0-1.381-1.212-1.415-3.233-1.565v-1.6h11.416v1.6c-2.964.101-3.806.976-7.139 6.431l-4.579 7.611v6.095c0 5.32.034 5.69 4.377 5.943v1.6h-14.378v-.002zm-113.546 0c0-2.121.337-5.573.607-7.576h-1.415c-.977 5.236-3.906 4.95-8.149 4.95-3.906 0-4.681-1.044-4.681-2.913v-8.2h3.165c3.57 0 4.614.303 4.614 3.57h1.414v-9.631h-1.414c-.27 2.593-.809 3.485-4.58 3.485h-3.199v-10.321h3.603c4.983 0 6.734.371 7.408 4.31h1.313l-.134-6.92h-20.844v1.566c2.121.218 3.031.336 3.3 1.717.236.875.236 4.158.236 5.303v10.254c0 .774 0 4.31-.067 4.983-.068 3.199-.438 3.502-3.469 3.821v1.6h22.292v.002zm387.175-12.729v1.583c-2.66.185-2.66.926-2.727 6.465v2.189c-2.256 1.415-5.489 3.435-11.247 3.435-10.069 0-14.849-7.594-14.849-15.255 0-9.394 6.296-15.489 14.243-15.489 5.017 0 7.88 1.902 10.27 3.35l1.515-1.751.202 9.143-1.178.218c-.606-1.767-1.482-3.754-3.704-5.976-.977-.926-2.828-2.155-5.758-2.155-5.119 0-9.362 4.31-9.362 12.745 0 6.684 3.3 12.443 8.991 12.443 3.3 0 4.95-2.29 5.118-2.458.505-.774.641-1.482.572-2.745-.134-3.721-.64-3.821-3.872-4.158v-1.583h11.786v-.001zm-373.604-2.947c.774.152 1.919.253 2.727.253 3.333.034 5.859-2.559 5.96-4.899.202-3.384-1.515-6.348-6.903-6.348-.74 0-1.212.068-1.784.169v10.825zm0 6.348c.034 6.701.034 7.61 3.569 7.727v1.6h-12.223v-1.6c3.165-.286 3.468-.774 3.535-3.922.034-1.196.034-2.543.034-3.771v-10.574c0-3.502-.034-4.731-.168-5.725-.202-1.565-1.01-1.869-3.401-2.087v-1.566l13.267.017c7.207 0 9.496 3.434 9.496 7.526 0 2.828-1.751 6.465-5.792 7.695l5.186 9.025c1.885 3.434 2.862 4.208 5.219 4.546v1.01c-.606.034-1.246.067-1.919.067-5.489 0-7.745-1.869-10.069-6.836l-1.65-3.383c-1.717-3.721-2.29-3.502-5.051-3.536v3.789h-.033zm359.815-51.204" fill="#fff"/><g fill="#fff"><path d="M129.974 375.569v-56.032h18.861l8.768 38.105h.155l9.311-38.105h18.238v56.032H173.9v-43.228h-.156l-10.787 43.228h-11.175l-10.245-43.228h-.152v43.228h-11.411zM194.837 375.569v-56.032h11.719v56.032h-11.719zM215.857 347.553c0-14.824 0-28.946 19.324-28.946 11.954 0 16.765 6.596 16.298 18.626h-11.482c0-7.451-1.322-10.245-4.815-10.245-6.596 0-7.451 6.208-7.451 20.566 0 14.358.854 20.566 7.451 20.566 5.433 0 5.202-6.983 5.358-11.407h11.562c0 14.976-5.977 19.787-16.921 19.787-19.324-.001-19.324-14.278-19.324-28.947zM285.073 341.968v-22.431h11.719v56.032h-11.719v-24.99h-13.427v24.99h-11.719v-56.032h11.719v22.431h13.427zM306.943 375.569v-56.032h11.718v56.032h-11.718zM354.119 336.766c.076-5.199-.774-9.778-6.982-9.778-7.299 0-7.299 9.857-7.299 20.722 0 17.54 1.709 20.641 8.385 20.641 1.94 0 4.032-.463 5.821-1.086v-12.417h-6.364v-8.612h18.082v28.403c-3.182.619-11.175 1.86-15.835 1.86-19.711 0-21.963-8.149-21.963-29.413 0-14.122.698-28.479 19.866-28.479 11.487 0 18.63 6.44 17.931 18.159h-11.642zM371.646 375.569l15.519-56.032h15.443l15.212 56.032h-12.342l-3.102-12.417H386.39l-3.182 12.417h-11.562zm22.583-45.244h-.156l-5.354 24.211h11.175l-5.665-24.211zM423.394 375.569v-56.032h15.83l14.9 38.804h.156v-38.804h10.944v56.032h-15.443l-15.287-40.976h-.156v40.976h-10.944zM76.29 453.152V397.12h30.575v8.616H88.008v13.815h17.384v8.612H88.008v16.373h19.476v8.616H76.29zM115.157 453.152V397.12h15.831l14.9 38.804h.155V397.12h10.944v56.032h-15.443l-15.288-40.976h-.155v40.976h-10.944zM192.438 414.349c.076-5.199-.775-9.778-6.983-9.778-7.299 0-7.299 9.857-7.299 20.722 0 17.54 1.709 20.641 8.385 20.641 1.94 0 4.033-.463 5.821-1.086v-12.417h-6.364v-8.612h18.083v28.403c-3.183.619-11.175 1.86-15.835 1.86-19.712 0-21.964-8.149-21.964-29.413 0-14.122.699-28.479 19.867-28.479 11.487 0 18.629 6.44 17.931 18.159h-11.642zM214.232 453.152V397.12h11.719v56.032h-11.719zM235.875 453.152V397.12h15.831l14.9 38.804h.156V397.12h10.944v56.032h-15.443l-15.288-40.976h-.155v40.976h-10.945zM287.547 453.152V397.12h30.575v8.616h-18.857v13.815h17.384v8.612h-17.384v16.373h19.475v8.616h-31.193zM326.339 453.152V397.12h30.575v8.616h-18.857v13.815h17.384v8.612h-17.384v16.373h19.475v8.616h-31.193zM376.613 453.152h-11.719V397.12h21.653c7.993 0 13.115 5.123 13.115 14.669 0 7.138-2.795 12.493-10.396 13.734v.156c2.559.311 10.165.93 10.165 11.019 0 3.57.231 14.126 1.317 16.454h-11.482c-1.553-3.414-1.242-7.219-1.242-10.863 0-6.676.619-12.342-8.384-12.342h-3.027v23.205zm0-31.817h5.202c4.656 0 5.973-4.659 5.973-8.229 0-5.354-2.247-7.37-5.973-7.37h-5.202v15.599zM408.266 453.152V397.12h11.718v56.032h-11.718zM429.909 453.152V397.12h15.831l14.9 38.804h.155V397.12h10.944v56.032h-15.443l-15.288-40.976h-.155v40.976h-10.944zM507.189 414.349c.076-5.199-.775-9.778-6.983-9.778-7.299 0-7.299 9.857-7.299 20.722 0 17.54 1.709 20.641 8.385 20.641 1.94 0 4.033-.463 5.821-1.086v-12.417h-6.364v-8.612h18.083v28.403c-3.183.619-11.175 1.86-15.836 1.86-19.711 0-21.963-8.149-21.963-29.413 0-14.122.699-28.479 19.867-28.479 11.487 0 18.629 6.44 17.931 18.159h-11.642z"/></g></svg>