<svg xmlns="http://www.w3.org/2000/svg" viewBox="-128 379.9 354.9 35.1"><g fill="#FFF"><path d="M-57.8 382.7l6 19.3h2.6l6.1-19.3h.1V402h2.8v-21.7h-4.6l-5.5 18.2h-.1l-5.5-18.2h-4.5V402h2.6v-19.3zM-36.4 380.3h2.8V402h-2.8v-21.7zm19 6c.3-4.2-1.4-6.4-5.7-6.4-4.3 0-7 1.7-7 7.9v6.1c0 8.4 4.1 8.6 6.8 8.6 1.4 0 6.2 0 6.1-6.8h-2.9c0 4.2-2.6 4.5-3.4 4.5-2.1 0-3.9-.6-3.9-5.9v-5.8c0-3.7.5-4.3.6-4.5.1-.3 1-1.7 3.3-1.7.6 0 1.9.2 2.4.9.6.7.7 1.9.6 3.1h3.1zm5.9 15.7v-9.9h7.6v9.9h2.8v-21.7h-2.8v9.4h-7.6v-9.4h-2.8V402h2.8zM2.9 380.3h2.8V402H2.9v-21.7zm19.9 5.8c.2-4.5-2-6.2-6.7-6.2-4.6 0-6.8 2.8-6.8 7.1v7.1c0 6 2.2 8.4 6.8 8.4 2.8 0 4.9-.7 6.6-1.6v-10.5h-6.8v2.4h4v6.5c-.6.4-1.9 1-3.9 1-2.6 0-4-1.2-4-5.9v-7.3c0-4.5 3.1-4.7 4-4.7 2.8 0 3.8 1.4 3.8 3.9.1-.2 3-.2 3-.2zm1.7 15.9h2.8l1.6-5.2h8.4l1.6 5.2H42l-7.1-21.7h-3.5L24.5 402zm12-7.6h-6.9l3.4-11.5 3.5 11.5zM56 380.3v18.5h-.1l-8.4-18.5h-3.9V402h2.5v-18.8h.1l8.6 18.8h3.8v-21.7H56zM81.8 402v-2.4h-8.6v-7.5H81v-2.4h-7.8v-7h8.4v-2.4H70.4V402h11.4zm14.8-21.7v18.5h-.1l-8.4-18.5h-3.9V402h2.5v-18.8h.1l8.6 18.8h3.8v-21.7h-2.6zm19.4 5.8c.2-4.5-2-6.2-6.7-6.2-4.6 0-6.8 2.8-6.8 7.1v7.1c0 6 2.2 8.4 6.8 8.4 2.8 0 4.9-.7 6.6-1.6v-10.5h-6.7v2.4h4v6.5c-.6.4-1.9 1-3.9 1-2.6 0-4-1.2-4-5.9v-7.3c0-4.5 3.1-4.7 4-4.7 2.8 0 3.8 1.4 3.8 3.9h2.9v-.2zM120.1 380.3h2.8V402h-2.8v-21.7zm19.2 0v18.5h-.1l-8.4-18.5h-3.9V402h2.5v-18.8h.1L138 402h3.8v-21.7h-2.5zm17.4 21.7v-2.4h-8.6v-7.5h7.8v-2.4h-7.8v-7h8.4v-2.4h-11.2V402h11.4zm13.7 0v-2.4h-8.6v-7.5h7.8v-2.4h-7.8v-7h8.4v-2.4H159V402h11.4zm5-19.3h4.2c2.1 0 2.9 1.7 2.9 3.3 0 1.9-1 3.6-2.9 3.6h-4.1l-.1-6.9zm3.2 9.3c.9 0 3.1.1 3.3 2.8.2 2.9.1 5.7.8 7.2h2.9c-.4-1.4-.7-4.7-.7-5.7-.2-4.4-1-5.2-3.5-5.6v-.1c2.5-.4 4-2.4 4-4.9 0-2.7-1.4-5.4-5.2-5.4h-7.5V402h2.8v-10h3.1zM188.4 380.3h2.8V402h-2.8v-21.7zm19.1 0v18.5h-.1l-8.4-18.5h-3.9V402h2.5v-18.8h.1l8.5 18.8h3.8v-21.7h-2.5zm19.4 5.8c.2-4.5-2-6.2-6.7-6.2-4.6 0-6.8 2.8-6.8 7.1v7.1c0 6 2.2 8.4 6.8 8.4 2.8 0 4.9-.7 6.6-1.6v-10.5h-6.7v2.4h4v6.5c-.6.4-1.9 1-3.9 1-2.6 0-4-1.2-4-5.9v-7.3c0-4.5 3.1-4.7 4-4.7 2.8 0 3.8 1.4 3.8 3.9h2.9v-.2z"/></g><path fill="#FFCF01" d="M-103.8 408.8l-9.9-13.6v9.9h3.9v9.7H-128v-9.7h3.7v-15.2h-3.7v-9.7h14.3l9.9 13.7 9.9-13.7h14.3v9.7h-3.7v15.2h3.7v9.7h-18.3v-9.7h3.9v-9.9c.2 0-9.8 13.6-9.8 13.6z"/><path fill="#FFF" d="M77.3 414.8v-.4c.5 0 .9-.1.9-.5 0-.1 0-.3-.1-.4l-.2-.7h-2.6l-.2.6c0 .2-.1.3-.1.5 0 .5.5.6 1 .6v.4h-3v-.4c.8 0 1-.2 1.3-1l2-5.4-.1-.2c.9-.3 1.1-.4 1.5-.7l.3 1.1 1.6 5c.3.9.4 1.1 1.2 1.2v.4l-3.5-.1zm-.7-5.9l-1.1 3h2.1l-1-3zm-25.5 4.3c-.3.5-1.1 1.8-3.1 1.8-2.2 0-3.6-1.6-3.6-3.8 0-2 1.2-3.9 3.7-3.9 1.3 0 2 .5 2.4.9l.5-.5v2.2l-.3.1c-.1-.4-.3-.8-.8-1.3-.2-.2-.8-.7-1.5-.7-1.3 0-2.4 1.1-2.4 3 0 1.6.9 3.1 2.6 3.1 1.3 0 1.8-.7 2.1-1.3l.4.4zm1.2 1.6v-.4c.8-.1.8-.2.8-1V409.5v-1.2c0-.4-.2-.5-.8-.6v-.4h3.1v.4c-.6.1-.8.1-.9.5-.1.2-.1.8-.1 1.2v1c.6 0 1.1.1 1.7.1.6 0 1.1 0 1.7-.1v-1.2c0-1.3 0-1.4-1-1.5v-.4H60v.4c-.9.1-.9.1-.9 1.5v4.5c.1.4.3.5.8.5v.4h-3.2v-.4c.7-.1.9-.1 1-.6v-2.3c-.6 0-1.1-.1-1.7-.1-.6 0-1.1 0-1.8.1v1.3c0 1.5 0 1.5 1 1.6v.4l-2.9.2zm9.1 0v-.4c.7-.1.9-.2.9-.9v-3.9c0-1.5 0-1.6-.9-1.7v-.4h3.1v.4c-.9.1-.9.1-.9 1.7v4.3c0 .4.3.6.8.6v.4h-3v-.1zm-20.9 0v-.4c.7-.1.9-.2.9-.9v-3.9c0-1.5 0-1.6-.9-1.7v-.4h3v.4c-.9.1-.9.1-.9 1.7v4.3c.1.4.3.6.8.6v.4h-2.9v-.1zm-4.7 0v-.4c.9-.1.9-.1.9-1.5v-3.7l-2.6 5.6h-.6l-2.4-5.7-.1 4.3c0 .7.1.9.9.9v.4h-2.5v-.4c.6 0 .8-.1.9-.6 0-.2.1-.8.1-1.2l.1-3.1v-.9c0-.7-.1-.8-.8-.8v-.4H32l2.3 5.6 2.5-5.6H39v.4c-.9.1-.9.1-.9 1.3v4.5c0 .5.2.6.8.7v.4l-3.1.2zm45.4 0v-.4c.6 0 .8 0 .9-.5.1-.5.1-4.8.1-5.6-.4-.4-.6-.4-1.1-.5v-.4h2.2c.6.9.7 1.1 1.8 2.4l2 2.5V409c0-1.2 0-1.2-1.2-1.3v-.4H89v.4c-.8 0-.9.2-.9 1.4l-.1 5.7h-.4l-.7-.8c-.3-.4-.7-.8-1-1.2l-2.9-3.6v3.8c0 1.2.1 1.2 1.2 1.3v.4l-3 .1zM20 411.1c0 2.5-1.7 3.9-3.7 3.9-2.1 0-3.8-1.5-3.8-3.9 0-2 1.3-3.8 3.7-3.8 2.2 0 3.8 1.6 3.8 3.8zm-3.7 3.2c.4 0 1-.2 1.5-.9.5-.8.6-1.5.6-2.5 0-.9-.3-1.8-.8-2.3-.2-.2-.7-.6-1.3-.6-.6 0-1.1.4-1.3.6-.5.6-.8 1.4-.8 2.4s.1 1.7.7 2.5c.4.6 1 .8 1.4.8zm4.4.1v.4h3v-.4c-.8-.1-.9-.1-.9-.9v-2.1h.8c.8 0 1.3.1 1.3.9h.4v-2.4H25c0 .8-.3.9-1.2.9h-1v-2.5h.9c1.4 0 1.9 0 2.1 1.1h.4l-.1-1.8h-5.4v.4c.5.1.8.1.8.4 0 .2.1 1 .1 1.3V413.6c0 .7-.1.7-.9.8zm-63.1.4v-.4c.7-.1.9-.2.9-.9v-3.9c0-1.5 0-1.6-.9-1.7v-.4h3v.4c-.9.1-.9.1-.9 1.7v4.3c0 .4.3.6.8.6v.4l-2.9-.1zm32.3 0v-.4c.7-.1.9-.2.9-.9v-3.9c0-1.5 0-1.6-.9-1.7v-.4h3v.4c-.9.1-.9.1-.9 1.7v4.3c0 .4.3.6.8.6v.4l-2.9-.1zm-41.2 0v-.4c.6 0 .8 0 .9-.5.1-.5.1-4.8.1-5.6-.4-.4-.6-.4-1.1-.5v-.4h2.2c.6.9.7 1.1 1.8 2.4l2.1 2.5V409c0-1.2 0-1.2-1.2-1.3v-.4h2.9v.4c-.8 0-.9.2-.9 1.4l-.1 5.7h-.4l-.7-.8c-.3-.4-.7-.8-1-1.2l-2.9-3.6v3.8c0 1.2.1 1.2 1.2 1.3v.4l-2.9.1zm35.2-2.3h.4c.4 1.2 1.1 1.8 2.2 1.8.8 0 1.5-.3 1.5-1.1s-.8-1.2-1.2-1.3l-.9-.3c-.6-.2-1.7-.7-1.7-2.1 0-1.4 1.1-2.1 2.3-2.1.5 0 1.1.1 1.7.5l.4-.3.2 2.2-.4.1c-.1-.5-.2-.7-.5-1.1-.4-.5-.8-.7-1.4-.7-.8 0-1.2.4-1.2 1 0 .9.9 1.2 1.7 1.4.4.1.8.3 1.1.4.6.3 1.1 1 1.1 1.9 0 1.3-1 2.3-2.6 2.3-1 0-1.6-.4-1.9-.6l-.6-.4-.2-1.6zm12 2.3v-.3c.7 0 .9-.3.9-.8v-5.4h-.9c-.8 0-1.4 0-1.4 1.3h-.4l.1-2.1H.9l.1 2.1H.5c-.1-1.3-.6-1.3-1.4-1.3h-.9v5.4c0 .6.2.8.9.8v.3h-3.2zm-52.8-7.4v.4c-1 .1-1 .1-1 1.7v1.7c0 .9 0 1.7.5 2.4.4.5 1 .6 1.3.6 1.1 0 1.6-.5 1.9-1.4.2-.7.2-2 .2-2.8v-1.4c0-.7-.4-.7-1-.7v-.4h2.8v.4c-.7 0-.8.1-.9.9 0 .2-.1 2.2-.1 2.5 0 .6-.1 1.1-.2 1.6-.5 2-2.4 2.1-2.9 2.1-.4 0-1.2-.1-1.9-.5-1.1-.7-1.1-1.8-1.1-3v-1.7-1.3c-.1-.5-.3-.5-.8-.6v-.4l3.2-.1zm26 0v.4c-.7.1-.8.3-1.4 1.8l-2.2 5.3h-.5l-2-5.4c-.5-1.4-.6-1.6-1.3-1.7v-.4h3.5v.4c-.6 0-1 0-1 .5 0 .2.1.4.3 1l1.3 3.7 1.5-3.9c.1-.3.2-.6.2-.8 0-.5-.5-.6-1-.6v-.4c0 .1 2.6.1 2.6.1zm34.8 7.4v-.4c.6-.1.8-.1.9-.2.2-.2.2-.4.2-1.2v-1.3l-1.9-3c-.5-.8-.5-.8-1.2-.9v-.4h3.8v.4c-.8 0-1.1 0-1.1.4 0 .2.1.4.3.7l1.1 1.8 1-1.8c.2-.4.3-.6.3-.8 0-.4-.3-.4-.8-.4v-.4h2.9v.4c-.7 0-1 .2-1.8 1.6l-1.1 1.9v1.5c0 1.3 0 1.4 1.1 1.5v.4l-3.7.2zm-28.5 0c0-.5.1-1.4.2-1.9h-.4c-.3 1.3-1 1.2-2.1 1.2-1 0-1.2-.3-1.2-.7v-2.1h.8c.9 0 1.2.1 1.2.9h.4v-2.4h-.4c-.1.7-.2.9-1.2.9h-.7v-2.6h.9c1.2 0 1.7.1 1.9 1.1h.3v-1.7h-5.2v.4c.5.1.8.1.8.4.1.2.1 1 .1 1.3V413.5c0 .8-.1.9-.9.9v.4h5.5zm97.2-3.2v.4c-.7 0-.7.2-.7 1.6v.6c-.6.4-1.4.9-2.8.9-2.5 0-3.7-1.9-3.7-3.8 0-2.3 1.6-3.9 3.6-3.9 1.2 0 2 .5 2.6.8l.4-.4.1 2.3-.3.1c-.2-.4-.4-.9-.9-1.5-.2-.2-.7-.5-1.5-.5-1.3 0-2.3 1.1-2.3 3.2 0 1.7.8 3.1 2.3 3.1.8 0 1.2-.6 1.3-.6.1-.2.2-.4.1-.7 0-.9-.2-1-1-1v-.4c-.2-.2 2.8-.2 2.8-.2zm-93.8-.8c.2 0 .5.1.7.1.8 0 1.5-.7 1.5-1.2 0-.9-.4-1.6-1.7-1.6h-.4l-.1 2.7zm0 1.6c0 1.7 0 1.9.9 1.9v.4h-3.1v-.4c.8-.1.9-.2.9-1v-3.6-1.4c-.1-.4-.3-.5-.9-.5v-.4h3.3c1.8 0 2.4.9 2.4 1.9 0 .7-.4 1.6-1.4 1.9l1.3 2.3c.5.9.7 1.1 1.3 1.1v.2h-.5c-1.4 0-2-.5-2.5-1.7l-.4-.9c-.4-.9-.6-.9-1.3-.9v1.1z"/><path fill="none" stroke="#FFF" stroke-width=".747" stroke-miterlimit="10" d="M-70 380.4v34.3"/></svg>