<?xml version="1.0" encoding="iso-8859-1"?>
<!-- Generator: Adobe Illustrator 20.0.0, SVG Export Plug-In . SVG Version: 6.00 Build 0)  -->
<svg version="1.1" id="Layer_1" xmlns="http://www.w3.org/2000/svg" xmlns:xlink="http://www.w3.org/1999/xlink" x="0px" y="0px"
	 viewBox="0 0 600 514.627" style="enable-background:new 0 0 600 514.627;" xml:space="preserve">
<polygon style="fill:#F4B824;" points="299.295,231.516 218.985,121.724 218.985,201.563 250.907,201.563 250.907,280.459 
	103.199,280.459 103.199,201.563 133.151,201.563 133.151,78.833 103.199,78.833 103.199,0 219.254,0 299.295,110.545 379.37,0 
	495.341,0 495.341,78.833 465.371,78.833 465.371,201.563 495.341,201.563 495.341,280.459 347.65,280.459 347.65,201.563 
	379.572,201.563 379.572,121.724 299.295,231.516 "/>
<path style="fill:#FFFFFF;" d="M397.217,331.761 M550.75,513.852v-1.583c1.987-0.134,3.536-0.253,3.536-1.919
	c0-0.522-0.169-1.162-0.337-1.717l-0.876-2.997h-10.304l-0.909,2.526c-0.202,0.656-0.403,1.212-0.403,1.818
	c0,2.088,2.222,2.222,4.007,2.29v1.583h-12.055v-1.583c3.064-0.134,4.04-0.74,5.185-3.805l7.913-21.685l-0.472-0.707
	c3.367-1.111,4.344-1.65,5.826-2.694c0.539,1.952,0.64,2.222,1.279,4.31l6.499,19.867c1.146,3.502,1.684,4.377,4.782,4.714v1.583
	H550.75L550.75,513.852z M548.123,490.383l-4.277,12.122h8.419L548.123,490.383L548.123,490.383z M446.363,507.371
	c-1.313,2.088-4.411,7.257-12.493,7.257c-8.788,0-14.48-6.499-14.48-15.018c0-7.913,4.815-15.725,14.681-15.725
	c5.22,0,7.947,2.239,9.664,3.535l1.987-1.818l0.168,8.856l-1.313,0.286c-0.505-1.717-1.246-3.115-3.132-5.169
	c-0.909-0.926-3.064-2.862-6.128-2.862c-5.287,0-9.463,4.31-9.463,11.887c0,6.432,3.435,12.459,10.203,12.459
	c5.085,0,7.038-2.828,8.553-5.017L446.363,507.371L446.363,507.371z M451.279,513.852v-1.583c3.334-0.253,3.368-0.993,3.368-3.805
	c0.034-1.044,0.034-2.088,0.034-3.097V493.11c0-1.903,0-3.805-0.135-4.714c-0.168-1.751-0.976-1.987-3.266-2.189v-1.583h12.527
	v1.583c-2.459,0.253-3.368,0.32-3.671,1.92c-0.203,0.942-0.236,3.097-0.236,4.865v4.024c2.526,0.134,4.31,0.219,6.735,0.219
	c2.491,0,4.445-0.084,6.937-0.219V492.1c-0.034-5.32-0.067-5.539-4.041-5.893v-1.583h12.662v1.583
	c-3.402,0.404-3.402,0.438-3.402,6.011v12.307c0,1.145,0.068,4.849,0.169,5.741c0.202,1.498,1.078,1.802,3.233,2.003v1.583H469.53
	v-1.583c2.93-0.336,3.704-0.403,3.974-2.408c0.067-0.859,0.067-1.97,0.067-4.091v-5.388c-2.324-0.067-4.243-0.168-6.634-0.168
	c-2.525,0-4.512,0.067-7.038,0.168v5.388c0.034,6.095,0.135,6.095,3.907,6.499v1.583H451.279L451.279,513.852z M487.343,513.852
	v-1.583c2.896-0.37,3.435-0.707,3.503-3.771v-3.721v-11.853c-0.067-6.061-0.067-6.246-3.503-6.735v-1.599h12.156v1.599
	c-3.401,0.337-3.401,0.489-3.401,6.735v11.802c0,1.044,0.034,4.31,0.101,5.186c0.202,1.784,1.044,2.189,3.3,2.357v1.583H487.343
	L487.343,513.852z M404.069,513.852v-1.583c2.862-0.37,3.434-0.707,3.468-3.771v-3.721v-11.853
	c-0.034-6.061-0.034-6.246-3.468-6.735v-1.599h12.156v1.599c-3.468,0.337-3.468,0.489-3.468,6.735v11.802
	c0,1.044,0.067,4.31,0.135,5.186c0.236,1.784,1.044,2.189,3.333,2.357v1.583H404.069L404.069,513.852z M385.633,513.852v-1.583
	c3.721-0.219,3.721-0.403,3.754-5.825v-14.716l-10.237,22.494h-2.559l-9.395-22.796l-0.202,17.207c0,2.862,0.337,3.417,3.434,3.636
	v1.583h-10.136v-1.583c2.358-0.134,3.267-0.472,3.402-2.408c0.134-0.825,0.235-3.266,0.269-4.899l0.404-12.224
	c0.034-0.977,0.034-2.357,0.034-3.384c0-2.896-0.539-3.148-3.165-3.165v-1.599h9.193l9.125,22.19l10.001-22.19h8.889v1.751
	c-3.468,0.219-3.502,0.606-3.468,5.135v12.038c0,2.037,0.067,4.496,0.134,6.011c0.202,2.121,1.01,2.525,3.333,2.744v1.583H385.633
	L385.633,513.852z M566.307,513.852v-1.583c2.424-0.134,3.333-0.168,3.671-1.852c0.403-1.92,0.505-19.244,0.572-22.291
	c-1.616-1.482-2.29-1.785-4.243-1.92v-1.583h8.788c2.459,3.468,2.964,4.243,7.274,9.597l8.182,10.102v-13.099
	c-0.034-4.613-0.168-4.883-4.782-5.017v-1.583h11.516v1.583c-3.199,0-3.468,0.69-3.535,5.455l-0.404,22.561h-1.751l-2.627-3.25
	c-1.314-1.7-2.66-3.333-3.973-4.966l-11.55-14.244v15.17c0,4.714,0.337,4.865,4.782,5.337v1.583H566.307L566.307,513.852z
	 M322.412,499.205c0,10.069-6.87,15.389-14.614,15.389c-8.52,0-15.153-6.145-15.153-15.456c0-7.963,5.354-15.17,14.749-15.136
	C316.25,484.035,322.412,490.315,322.412,499.205L322.412,499.205z M307.798,511.9c1.684-0.067,4.007-0.876,5.792-3.637
	c2.088-3.165,2.525-6.061,2.39-9.883c-0.101-3.754-1.145-6.987-3.333-9.311c-0.909-1.01-2.761-2.458-5.22-2.39
	c-2.424,0-4.243,1.515-5.151,2.559c-2.054,2.357-3.031,5.623-3.031,9.394c0,3.805,0.505,6.735,2.694,9.816
	C303.824,511.159,306.148,511.9,307.798,511.9L307.798,511.9z M325.342,512.236v1.616h12.122v-1.616
	c-3.031-0.303-3.401-0.589-3.502-3.771l0.034-8.334h3.233c3.266,0,5.017,0.286,5.219,3.603h1.415v-9.664h-1.415
	c-0.168,3.115-1.01,3.452-4.579,3.452h-3.872v-10.136c1.044-0.118,1.616-0.118,3.502-0.118c5.691,0,7.543-0.034,8.318,4.496h1.447
	l-0.438-7.138h-21.483v1.583c2.104,0.202,3.03,0.32,3.333,1.701c0.202,0.892,0.235,4.125,0.235,5.27v10.304
	c0,0.774-0.034,4.31-0.101,4.983C328.742,511.647,328.372,511.933,325.342,512.236L325.342,512.236z M74.038,513.651v-1.583
	c2.896-0.371,3.435-0.707,3.502-3.771v-3.738v-11.819c-0.067-6.095-0.067-6.28-3.502-6.768v-1.566h12.156v1.566
	c-3.435,0.336-3.435,0.488-3.435,6.768v11.786c0,1.027,0.034,4.31,0.135,5.186c0.202,1.784,1.044,2.155,3.3,2.34v1.6H74.038
	L74.038,513.651z M202.872,513.651v-1.583c2.829-0.371,3.435-0.707,3.435-3.771v-3.738v-11.819c0-6.095,0-6.28-3.435-6.768v-1.566
	h12.123v1.566c-3.469,0.336-3.469,0.488-3.469,6.768v11.786c0,1.027,0.067,4.31,0.135,5.186c0.202,1.784,1.044,2.155,3.334,2.34v1.6
	H202.872L202.872,513.651z M38.479,513.651v-1.583c2.391-0.134,3.3-0.168,3.637-1.802c0.404-1.97,0.505-19.311,0.539-22.325
	c-1.583-1.482-2.256-1.785-4.176-1.97v-1.566h8.755c2.425,3.502,2.997,4.31,7.274,9.631l8.182,10.102v-13.116
	c-0.034-4.614-0.168-4.833-4.815-5.051v-1.549h11.517v1.549c-3.199,0.067-3.469,0.707-3.502,5.455l-0.438,22.595h-1.717
	l-2.627-3.266c-1.313-1.667-2.66-3.301-3.973-4.951l-11.55-14.227v15.136c0,4.714,0.337,4.9,4.815,5.337v1.6H38.479L38.479,513.651z
	 M178.694,504.525l1.482-0.168c1.616,4.798,4.31,7.34,8.688,7.34c3.098,0,5.859-1.346,5.859-4.478c0-3.3-3.165-4.596-4.613-5.22
	c-1.146-0.421-2.391-0.825-3.57-1.279c-2.39-0.876-6.903-2.711-6.903-8.419c0-5.438,4.31-8.52,9.327-8.52
	c1.953,0,4.209,0.404,6.701,2.004l1.784-1.297l0.977,8.688l-1.482,0.269c-0.505-1.869-0.875-2.761-2.02-4.31
	c-1.381-1.818-3.368-2.677-5.691-2.677c-3.132,0-4.95,1.515-4.95,3.822c0,3.468,3.434,4.646,6.701,5.724
	c1.684,0.556,3.031,0.977,4.209,1.684c2.357,1.397,4.243,3.957,4.243,7.459c0,5.051-4.142,9.243-10.304,9.243
	c-3.974,0-6.432-1.583-7.576-2.34l-2.425-1.767L178.694,504.525L178.694,504.525z M226.747,513.651v-1.263
	c2.694-0.034,3.434-1.027,3.434-3.351v-21.5h-3.637c-3.3,0-5.489-0.152-5.758,5.084h-1.515l0.235-8.216h26.568l0.236,8.216h-1.549
	c-0.235-5.236-2.424-5.084-5.725-5.084H235.4v21.5c0,2.324,0.74,3.317,3.434,3.351v1.263H226.747L226.747,513.651z M16.087,484.405
	v1.566c-3.873,0.269-3.873,0.437-3.94,6.683v6.836c0,3.57,0.101,6.617,1.953,9.344c1.515,2.189,4.04,2.475,5.32,2.475
	c4.176,0,6.499-2.155,7.509-5.64c0.808-2.727,0.841-7.845,0.841-11.23c0-1.078,0-4.563-0.034-5.539
	c-0.168-2.66-1.549-2.711-4.141-2.929v-1.566h11.112v1.566c-2.727-0.068-3.3,0.589-3.468,3.468
	c-0.034,0.707-0.371,8.822-0.404,10.102c-0.067,2.189-0.202,4.411-0.707,6.533c-1.987,7.845-9.631,8.283-11.685,8.283
	c-1.583,0-4.916-0.253-7.644-2.088c-4.344-2.929-4.411-7.34-4.411-12.055v-6.633c-0.034-3.115-0.034-4.529-0.135-5.27
	c-0.235-1.852-1.145-2.189-3.333-2.34v-1.566H16.087L16.087,484.405z M119.733,484.405v1.566c-2.795,0.437-3.199,1.228-5.589,7.02
	l-8.924,21.231h-1.549l-8.014-21.568c-1.986-5.539-2.222-6.195-5.152-6.683v-1.566h13.839v1.566
	c-2.357,0.101-3.872,0.184-3.872,1.852c0,0.892,0.203,1.565,1.01,4.024l5.085,14.833l5.96-15.355c0.37-1.043,0.875-2.34,0.875-3.081
	c0-2.121-2.088-2.239-3.906-2.272v-1.566H119.733L119.733,484.405z M258.331,513.651v-1.583c2.29-0.27,3.165-0.337,3.738-0.909
	c0.673-0.673,0.673-1.414,0.707-4.563v-5.169l-7.745-12.038c-2.155-3.182-2.189-3.233-4.983-3.417v-1.6h15.186v1.6
	c-3.031,0.101-4.411,0.184-4.411,1.599c0,0.774,0.539,1.667,1.279,2.929l4.479,7.325l4.141-7.307
	c0.708-1.448,1.145-2.323,1.145-2.98c0-1.381-1.212-1.415-3.233-1.565v-1.6h11.416v1.6c-2.964,0.101-3.806,0.976-7.139,6.431
	l-4.579,7.611v6.095c0,5.32,0.034,5.69,4.377,5.943v1.6H258.331L258.331,513.651z M144.785,513.651c0-2.121,0.337-5.573,0.607-7.576
	h-1.415c-0.977,5.236-3.906,4.95-8.149,4.95c-3.906,0-4.681-1.044-4.681-2.913v-8.2h3.165c3.57,0,4.614,0.303,4.614,3.57h1.414
	v-9.631h-1.414c-0.27,2.593-0.809,3.485-4.58,3.485h-3.199v-10.321h3.603c4.983,0,6.734,0.371,7.408,4.31h1.313l-0.134-6.92h-20.844
	v1.566c2.121,0.218,3.031,0.336,3.3,1.717c0.236,0.875,0.236,4.158,0.236,5.303v10.254c0,0.774,0,4.31-0.067,4.983
	c-0.068,3.199-0.438,3.502-3.469,3.821v1.6H144.785L144.785,513.651z M531.96,500.922v1.583c-2.66,0.185-2.66,0.926-2.727,6.465
	v2.189c-2.256,1.415-5.489,3.435-11.247,3.435c-10.069,0-14.849-7.594-14.849-15.255c0-9.394,6.296-15.489,14.243-15.489
	c5.017,0,7.88,1.902,10.27,3.35l1.515-1.751l0.202,9.143l-1.178,0.218c-0.606-1.767-1.482-3.754-3.704-5.976
	c-0.977-0.926-2.828-2.155-5.758-2.155c-5.119,0-9.362,4.31-9.362,12.745c0,6.684,3.3,12.443,8.991,12.443
	c3.3,0,4.95-2.29,5.118-2.458c0.505-0.774,0.641-1.482,0.572-2.745c-0.134-3.721-0.64-3.821-3.872-4.158v-1.583H531.96
	L531.96,500.922z M158.356,497.975c0.774,0.152,1.919,0.253,2.727,0.253c3.333,0.034,5.859-2.559,5.96-4.899
	c0.202-3.384-1.515-6.348-6.903-6.348c-0.74,0-1.212,0.068-1.784,0.169V497.975L158.356,497.975z M158.356,504.323
	c0.034,6.701,0.034,7.61,3.569,7.727v1.6h-12.223v-1.6c3.165-0.286,3.468-0.774,3.535-3.922c0.034-1.196,0.034-2.543,0.034-3.771
	v-10.574c0-3.502-0.034-4.731-0.168-5.725c-0.202-1.565-1.01-1.869-3.401-2.087v-1.566l13.267,0.017
	c7.207,0,9.496,3.434,9.496,7.526c0,2.828-1.751,6.465-5.792,7.695l5.186,9.025c1.885,3.434,2.862,4.208,5.219,4.546v1.01
	c-0.606,0.034-1.246,0.067-1.919,0.067c-5.489,0-7.745-1.869-10.069-6.836l-1.65-3.383c-1.717-3.721-2.29-3.502-5.051-3.536v3.789
	H158.356z M158.356,504.323 M77.894,453.641 M143.321,453.641 M202.013,453.119 M216.425,453.641 M264.578,453.641 M290.069,453.641
	 M329.029,453.641 M411.326,453.641 M459.478,453.641 M518.171,453.119"/>
<g>
	<path style="fill:#FFFFFF;" d="M129.974,375.569v-56.032h18.861l8.768,38.105h0.155l9.311-38.105h18.238v56.032H173.9v-43.228
		h-0.156l-10.787,43.228h-11.175l-10.245-43.228h-0.152v43.228H129.974z"/>
	<path style="fill:#FFFFFF;" d="M194.837,375.569v-56.032h11.719v56.032H194.837z"/>
	<path style="fill:#FFFFFF;" d="M215.857,347.553c0-14.824,0-28.946,19.324-28.946c11.954,0,16.765,6.596,16.298,18.626h-11.482
		c0-7.451-1.322-10.245-4.815-10.245c-6.596,0-7.451,6.208-7.451,20.566c0,14.358,0.854,20.566,7.451,20.566
		c5.433,0,5.202-6.983,5.358-11.407h11.562c0,14.976-5.977,19.787-16.921,19.787C215.857,376.499,215.857,362.222,215.857,347.553z"
		/>
	<path style="fill:#FFFFFF;" d="M285.073,341.968v-22.431h11.719v56.032h-11.719v-24.99h-13.427v24.99h-11.719v-56.032h11.719
		v22.431H285.073z"/>
	<path style="fill:#FFFFFF;" d="M306.943,375.569v-56.032h11.718v56.032H306.943z"/>
	<path style="fill:#FFFFFF;" d="M354.119,336.766c0.076-5.199-0.774-9.778-6.982-9.778c-7.299,0-7.299,9.857-7.299,20.722
		c0,17.54,1.709,20.641,8.385,20.641c1.94,0,4.032-0.463,5.821-1.086v-12.417h-6.364v-8.612h18.082v28.403
		c-3.182,0.619-11.175,1.86-15.835,1.86c-19.711,0-21.963-8.149-21.963-29.413c0-14.122,0.698-28.479,19.866-28.479
		c11.487,0,18.63,6.44,17.931,18.159H354.119z"/>
	<path style="fill:#FFFFFF;" d="M371.646,375.569l15.519-56.032h15.443l15.212,56.032h-12.342l-3.102-12.417h-15.986l-3.182,12.417
		H371.646z M394.229,330.325h-0.156l-5.354,24.211h11.175L394.229,330.325z"/>
	<path style="fill:#FFFFFF;" d="M423.394,375.569v-56.032h15.83l14.9,38.804h0.156v-38.804h10.944v56.032h-15.443l-15.287-40.976
		h-0.156v40.976H423.394z"/>
	<path style="fill:#FFFFFF;" d="M76.29,453.152V397.12h30.575v8.616H88.008v13.815h17.384v8.612H88.008v16.373h19.476v8.616H76.29z"
		/>
	<path style="fill:#FFFFFF;" d="M115.157,453.152V397.12h15.831l14.9,38.804h0.155V397.12h10.944v56.032h-15.443l-15.288-40.976
		h-0.155v40.976H115.157z"/>
	<path style="fill:#FFFFFF;" d="M192.438,414.349c0.076-5.199-0.775-9.778-6.983-9.778c-7.299,0-7.299,9.857-7.299,20.722
		c0,17.54,1.709,20.641,8.385,20.641c1.94,0,4.033-0.463,5.821-1.086v-12.417h-6.364v-8.612h18.083v28.403
		c-3.183,0.619-11.175,1.86-15.835,1.86c-19.712,0-21.964-8.149-21.964-29.413c0-14.122,0.699-28.479,19.867-28.479
		c11.487,0,18.629,6.44,17.931,18.159H192.438z"/>
	<path style="fill:#FFFFFF;" d="M214.232,453.152V397.12h11.719v56.032H214.232z"/>
	<path style="fill:#FFFFFF;" d="M235.875,453.152V397.12h15.831l14.9,38.804h0.156V397.12h10.944v56.032h-15.443l-15.288-40.976
		h-0.155v40.976H235.875z"/>
	<path style="fill:#FFFFFF;" d="M287.547,453.152V397.12h30.575v8.616h-18.857v13.815h17.384v8.612h-17.384v16.373h19.475v8.616
		H287.547z"/>
	<path style="fill:#FFFFFF;" d="M326.339,453.152V397.12h30.575v8.616h-18.857v13.815h17.384v8.612h-17.384v16.373h19.475v8.616
		H326.339z"/>
	<path style="fill:#FFFFFF;" d="M376.613,453.152h-11.719V397.12h21.653c7.993,0,13.115,5.123,13.115,14.669
		c0,7.138-2.795,12.493-10.396,13.734v0.156c2.559,0.311,10.165,0.93,10.165,11.019c0,3.57,0.231,14.126,1.317,16.454h-11.482
		c-1.553-3.414-1.242-7.219-1.242-10.863c0-6.676,0.619-12.342-8.384-12.342h-3.027V453.152z M376.613,421.335h5.202
		c4.656,0,5.973-4.659,5.973-8.229c0-5.354-2.247-7.37-5.973-7.37h-5.202V421.335z"/>
	<path style="fill:#FFFFFF;" d="M408.266,453.152V397.12h11.718v56.032H408.266z"/>
	<path style="fill:#FFFFFF;" d="M429.909,453.152V397.12h15.831l14.9,38.804h0.155V397.12h10.944v56.032h-15.443l-15.288-40.976
		h-0.155v40.976H429.909z"/>
	<path style="fill:#FFFFFF;" d="M507.189,414.349c0.076-5.199-0.775-9.778-6.983-9.778c-7.299,0-7.299,9.857-7.299,20.722
		c0,17.54,1.709,20.641,8.385,20.641c1.94,0,4.033-0.463,5.821-1.086v-12.417h-6.364v-8.612h18.083v28.403
		c-3.183,0.619-11.175,1.86-15.836,1.86c-19.711,0-21.963-8.149-21.963-29.413c0-14.122,0.699-28.479,19.867-28.479
		c11.487,0,18.629,6.44,17.931,18.159H507.189z"/>
</g>
</svg>
