<?xml version="1.0" encoding="utf-8"?>
<!-- Generator: Adobe Illustrator 20.0.0, SVG Export Plug-In . SVG Version: 6.00 Build 0)  -->
<svg version="1.1" id="Layer_1" xmlns="http://www.w3.org/2000/svg" xmlns:xlink="http://www.w3.org/1999/xlink" x="0px" y="0px"
	 viewBox="0 0 612.6 531.5" style="enable-background:new 0 0 612.6 531.5;" xml:space="preserve">
<style type="text/css">
	.st0{fill:none;stroke:#FFFFFF;stroke-width:13.7067;stroke-linecap:round;stroke-linejoin:round;stroke-miterlimit:10;}
</style>
<g id="_x35__9_">
	<path class="st0" d="M238.9,404.5v58c0,7.9,6.4,14.4,14.4,14.4h7l0.5,1.9c5.4,19.6,23.2,33.2,43.6,33.2h0c19.9,0,37.5-13,43.2-32.1
		l0.9-3h7c7.9,0,14.4-6.4,14.4-14.4v-58H238.9z"/>
	<path class="st0" d="M432.3,223.2c0-70.2-56.5-127.2-126.4-128c-70.5-0.8-129.4,57.3-129.6,127.7c-0.1,26.8,8.1,51.7,22.2,72.3
		c24,35.2,40.2,66.7,40.2,109.3l131.2,0c0-42.5,15.9-73.9,40-109C424.1,275,432.3,250,432.3,223.2z"/>
	<path class="st0" d="M320.5,403.5c0.7-60.3,20.4-111.7,32-136.7c3.6-7.9-3.1-16.6-11.7-15c-4.1,0.7-8.7,3.2-13.6,6.5
		c-14.6,9.8-33.6,9.8-48.3,0c-4.9-3.3-9.5-5.8-13.6-6.5c-8.5-1.5-15.3,7.2-11.7,15c11.6,25.1,31.3,76.5,32,136.7"/>
	<line class="st0" x1="147.5" y1="287" x2="120.4" y2="297.5"/>
	<line class="st0" x1="140.6" y1="176.6" x2="112.5" y2="170.5"/>
	<line class="st0" x1="195.6" y1="88.2" x2="175.9" y2="68.8"/>
	<line class="st0" x1="306.3" y1="47.6" x2="306.3" y2="19.3"/>
	<line class="st0" x1="464.2" y1="287" x2="491.3" y2="297.5"/>
	<line class="st0" x1="472.1" y1="176.6" x2="500.2" y2="170.5"/>
	<line class="st0" x1="417" y1="88.2" x2="436.7" y2="68.8"/>
	<line class="st0" x1="260.2" y1="476.9" x2="348.5" y2="476.9"/>
	<line class="st0" x1="241.5" y1="440.7" x2="367.2" y2="440.7"/>
</g>
</svg>
