<svg id="Layer_1" xmlns="http://www.w3.org/2000/svg" viewBox="0 0 612.6 531.5"><style>.st0{fill:none;stroke:#fff;stroke-width:13.7067;stroke-linecap:round;stroke-linejoin:round;stroke-miterlimit:10}</style><g id="_x35__9_"><path class="st0" d="M238.9 404.5v58c0 7.9 6.4 14.4 14.4 14.4h7l.5 1.9c5.4 19.6 23.2 33.2 43.6 33.2 19.9 0 37.5-13 43.2-32.1l.9-3h7c7.9 0 14.4-6.4 14.4-14.4v-58h-131z"/><path class="st0" d="M432.3 223.2c0-70.2-56.5-127.2-126.4-128-70.5-.8-129.4 57.3-129.6 127.7-.1 26.8 8.1 51.7 22.2 72.3 24 35.2 40.2 66.7 40.2 109.3h131.2c0-42.5 15.9-73.9 40-109 14.2-20.5 22.4-45.5 22.4-72.3z"/><path class="st0" d="M320.5 403.5c.7-60.3 20.4-111.7 32-136.7 3.6-7.9-3.1-16.6-11.7-15-4.1.7-8.7 3.2-13.6 6.5-14.6 9.8-33.6 9.8-48.3 0-4.9-3.3-9.5-5.8-13.6-6.5-8.5-1.5-15.3 7.2-11.7 15 11.6 25.1 31.3 76.5 32 136.7M147.5 287l-27.1 10.5M140.6 176.6l-28.1-6.1M195.6 88.2l-19.7-19.4M306.3 47.6V19.3M464.2 287l27.1 10.5M472.1 176.6l28.1-6.1M417 88.2l19.7-19.4M260.2 476.9h88.3M241.5 440.7h125.7"/></g></svg>