<?xml version="1.0" encoding="iso-8859-1"?>
<!-- Generator: Adobe Illustrator 20.0.0, SVG Export Plug-In . SVG Version: 6.00 Build 0)  -->
<svg version="1.1" id="Layer_1" xmlns="http://www.w3.org/2000/svg" xmlns:xlink="http://www.w3.org/1999/xlink" x="0px" y="0px"
	 viewBox="0 0 88.041 88.037" style="enable-background:new 0 0 88.041 88.037;" xml:space="preserve">
<g>
	<defs>
		<rect id="SVGID_1_" y="0" width="88.041" height="88.037"/>
	</defs>
	<clipPath id="SVGID_2_">
		<use xlink:href="#SVGID_1_"  style="overflow:visible;"/>
	</clipPath>
	<path style="clip-path:url(#SVGID_2_);fill:#FFFFFF;" d="M29.605,27.527c-0.174-1.012-0.417-1.949-0.729-2.812
		c-0.313-0.862-0.679-1.591-1.099-2.184c-0.42-0.593-0.892-1.038-1.416-1.334c-0.523-0.295-1.085-0.392-1.684-0.289
		c-0.619,0.106-1.125,0.386-1.52,0.84c-0.395,0.454-0.691,1.03-0.889,1.73c-0.198,0.699-0.296,1.507-0.292,2.423
		c0.002,0.916,0.091,1.879,0.265,2.891s0.412,1.95,0.715,2.814c0.303,0.865,0.665,1.598,1.087,2.201
		c0.422,0.603,0.894,1.052,1.418,1.348c0.523,0.296,1.094,0.39,1.713,0.284c0.618-0.106,1.124-0.386,1.519-0.84
		c0.395-0.453,0.691-1.034,0.887-1.744c0.196-0.709,0.293-1.521,0.29-2.437C29.867,29.503,29.779,28.539,29.605,27.527
		 M33.09,26.928c0.27,1.574,0.352,3.031,0.245,4.371c-0.108,1.34-0.392,2.522-0.852,3.546c-0.461,1.025-1.093,1.866-1.896,2.525
		c-0.803,0.659-1.757,1.083-2.863,1.273c-1.124,0.193-2.17,0.113-3.138-0.242c-0.967-0.354-1.839-0.938-2.615-1.75
		c-0.776-0.811-1.439-1.831-1.987-3.058c-0.549-1.227-0.958-2.628-1.228-4.202c-0.271-1.574-0.356-3.025-0.257-4.354
		c0.1-1.329,0.38-2.506,0.841-3.53c0.46-1.024,1.093-1.862,1.898-2.511c0.804-0.649,1.769-1.071,2.893-1.264
		c1.105-0.19,2.146-0.113,3.121,0.23c0.975,0.344,1.852,0.922,2.628,1.734c0.776,0.812,1.437,1.827,1.984,3.044
		C32.411,23.958,32.82,25.354,33.09,26.928"/>
</g>
<polygon style="fill:#FFFFFF;" points="46.075,34.969 38.011,21.886 37.927,21.901 40.398,35.945 37.362,36.466 33.943,16.567 
	37.793,15.905 45.816,29.082 45.9,29.067 43.443,14.934 46.366,14.432 49.785,34.331 "/>
<polygon style="fill:#FFFFFF;" points="53.096,33.763 49.676,13.864 58.586,12.333 59.097,15.312 53.42,16.288 54.328,21.572 
	59.584,20.668 60.057,23.423 54.801,24.326 55.81,30.2 61.77,29.176 62.286,32.184 "/>
<g>
	<defs>
		<rect id="SVGID_3_" y="0" width="88.041" height="88.037"/>
	</defs>
	<clipPath id="SVGID_4_">
		<use xlink:href="#SVGID_3_"  style="overflow:visible;"/>
	</clipPath>
	<path style="clip-path:url(#SVGID_4_);fill:#FFFFFF;" d="M32.047,56.448c-0.56,0.479-1.312,0.8-2.258,0.962
		c-0.859,0.148-1.671,0.081-2.434-0.2c-0.764-0.282-1.447-0.737-2.049-1.363c-0.602-0.627-1.119-1.405-1.552-2.333
		c-0.432-0.929-0.748-1.973-0.947-3.134c-0.2-1.161-0.252-2.254-0.155-3.281c0.096-1.027,0.328-1.937,0.693-2.73
		c0.365-0.793,0.861-1.446,1.489-1.959c0.626-0.513,1.363-0.843,2.208-0.988c0.874-0.15,1.668-0.121,2.383,0.088
		c0.714,0.21,1.33,0.579,1.85,1.109l-1.173,2.06c-0.733-0.744-1.564-1.036-2.496-0.876c-0.516,0.088-0.942,0.313-1.278,0.673
		c-0.336,0.36-0.59,0.814-0.762,1.359c-0.172,0.546-0.264,1.17-0.276,1.873c-0.012,0.702,0.049,1.441,0.182,2.215
		c0.13,0.758,0.319,1.468,0.564,2.125c0.246,0.659,0.541,1.217,0.885,1.673c0.344,0.459,0.738,0.799,1.183,1.026
		c0.444,0.226,0.932,0.293,1.461,0.202c0.502-0.086,0.913-0.29,1.234-0.61c0.322-0.32,0.571-0.688,0.751-1.102l1.782,1.485
		C33.034,55.393,32.606,55.969,32.047,56.448"/>
	<path style="clip-path:url(#SVGID_4_);fill:#FFFFFF;" d="M40.966,47.237c-0.133-0.774-0.319-1.489-0.558-2.15
		c-0.238-0.659-0.518-1.216-0.839-1.67c-0.321-0.453-0.683-0.793-1.083-1.02c-0.4-0.225-0.829-0.299-1.288-0.22
		c-0.473,0.081-0.86,0.295-1.162,0.641c-0.301,0.348-0.528,0.788-0.68,1.323c-0.151,0.535-0.226,1.153-0.223,1.853
		c0.002,0.701,0.07,1.437,0.203,2.21c0.133,0.774,0.315,1.492,0.546,2.152c0.232,0.662,0.509,1.222,0.832,1.682
		c0.322,0.462,0.683,0.805,1.084,1.031c0.4,0.227,0.837,0.3,1.309,0.218c0.473-0.081,0.86-0.295,1.162-0.642
		c0.302-0.347,0.528-0.791,0.678-1.334c0.151-0.542,0.224-1.162,0.222-1.863C41.167,48.748,41.099,48.011,40.966,47.237
		 M43.631,46.779c0.207,1.204,0.269,2.318,0.187,3.342c-0.082,1.025-0.299,1.928-0.651,2.712c-0.352,0.784-0.836,1.427-1.449,1.93
		c-0.614,0.505-1.345,0.828-2.19,0.973c-0.86,0.148-1.659,0.087-2.399-0.185c-0.74-0.27-1.406-0.716-1.999-1.337
		c-0.594-0.621-1.101-1.4-1.52-2.339c-0.419-0.938-0.732-2.008-0.939-3.213c-0.207-1.203-0.273-2.312-0.196-3.329
		c0.076-1.016,0.291-1.915,0.642-2.699c0.353-0.783,0.837-1.423,1.452-1.919c0.615-0.497,1.352-0.819,2.212-0.967
		c0.845-0.145,1.641-0.086,2.387,0.176c0.745,0.263,1.415,0.705,2.008,1.325c0.594,0.621,1.099,1.398,1.518,2.328
		C43.112,44.509,43.424,45.576,43.631,46.779"/>
	<path style="clip-path:url(#SVGID_4_);fill:#FFFFFF;" d="M53.278,45.121c-0.133-0.774-0.32-1.489-0.558-2.15
		c-0.239-0.659-0.519-1.216-0.84-1.67c-0.32-0.453-0.682-0.793-1.082-1.02c-0.401-0.225-0.83-0.299-1.288-0.22
		c-0.473,0.081-0.86,0.295-1.162,0.641c-0.301,0.348-0.528,0.788-0.68,1.323c-0.151,0.535-0.226,1.153-0.223,1.853
		c0.001,0.701,0.07,1.437,0.203,2.21c0.133,0.774,0.314,1.492,0.546,2.152c0.232,0.662,0.509,1.222,0.831,1.682
		c0.324,0.462,0.684,0.805,1.084,1.031c0.401,0.227,0.837,0.3,1.31,0.218c0.473-0.081,0.86-0.295,1.161-0.642
		c0.303-0.347,0.529-0.791,0.679-1.334c0.151-0.542,0.224-1.162,0.222-1.863C53.478,46.633,53.411,45.895,53.278,45.121
		 M55.943,44.663c0.207,1.204,0.269,2.318,0.187,3.342c-0.083,1.025-0.299,1.928-0.652,2.712c-0.351,0.784-0.835,1.427-1.449,1.93
		c-0.615,0.505-1.344,0.828-2.189,0.974c-0.86,0.147-1.659,0.086-2.4-0.185c-0.739-0.271-1.406-0.717-1.999-1.338
		c-0.594-0.621-1.1-1.4-1.519-2.339c-0.42-0.938-0.732-2.008-0.939-3.213c-0.207-1.203-0.273-2.312-0.196-3.329
		c0.076-1.016,0.289-1.915,0.642-2.699c0.352-0.782,0.835-1.422,1.451-1.919c0.616-0.496,1.352-0.819,2.212-0.967
		c0.846-0.145,1.641-0.086,2.387,0.176c0.746,0.263,1.416,0.705,2.009,1.326c0.594,0.62,1.099,1.397,1.518,2.327
		C55.424,42.393,55.736,43.46,55.943,44.663"/>
</g>
<polygon style="fill:#FFFFFF;" points="59.209,51.957 56.595,36.742 59.196,36.295 61.4,49.125 65.591,48.405 66.001,50.79 "/>
<polygon style="fill:#FFFFFF;" points="30.865,62.375 32.76,73.406 30.613,73.774 28.718,62.744 26.297,63.16 25.978,61.304 
	32.967,60.103 33.286,61.96 "/>
<polygon style="fill:#FFFFFF;" points="42.271,71.771 41.289,66.057 37.43,66.719 38.412,72.435 36.246,72.807 34.031,59.92 
	36.198,59.548 37.095,64.772 40.954,64.108 40.057,58.884 42.222,58.513 44.437,71.399 "/>
<rect x="45.452" y="57.863" transform="matrix(0.9856 -0.1693 0.1693 0.9856 -10.2321 8.8135)" style="fill:#FFFFFF;" width="2.216" height="13.076"/>
<polygon style="fill:#FFFFFF;" points="56.541,69.32 51.318,60.847 51.263,60.856 52.863,69.951 50.898,70.29 48.684,57.403 
	51.177,56.974 56.372,65.507 56.428,65.496 54.836,56.344 56.729,56.02 58.944,68.907 "/>
<g>
	<defs>
		<rect id="SVGID_5_" y="0" width="88.041" height="88.037"/>
	</defs>
	<clipPath id="SVGID_6_">
		<use xlink:href="#SVGID_5_"  style="overflow:visible;"/>
	</clipPath>
	<path style="clip-path:url(#SVGID_6_);fill:#FFFFFF;" d="M67.41,67.434c-0.508,0.286-1.136,0.495-1.889,0.624
		c-0.765,0.132-1.478,0.089-2.139-0.129c-0.662-0.217-1.254-0.586-1.774-1.11c-0.521-0.522-0.965-1.177-1.331-1.964
		c-0.367-0.786-0.636-1.683-0.809-2.691c-0.169-0.982-0.216-1.905-0.138-2.767c0.076-0.864,0.269-1.63,0.578-2.302
		c0.309-0.672,0.727-1.224,1.252-1.658c0.525-0.434,1.151-0.714,1.88-0.839c0.764-0.131,1.449-0.107,2.054,0.069
		c0.606,0.177,1.127,0.485,1.564,0.922l-0.993,1.744c-0.606-0.62-1.322-0.86-2.148-0.718c-0.449,0.077-0.817,0.273-1.108,0.585
		c-0.29,0.312-0.507,0.703-0.651,1.17c-0.144,0.469-0.222,0.997-0.233,1.586c-0.012,0.59,0.037,1.2,0.145,1.83
		c0.113,0.655,0.273,1.263,0.482,1.82c0.208,0.558,0.458,1.033,0.75,1.426c0.292,0.393,0.627,0.683,1.002,0.869
		c0.376,0.185,0.793,0.238,1.255,0.158c0.291-0.05,0.549-0.128,0.774-0.236c0.226-0.106,0.402-0.229,0.528-0.362l-0.572-3.331
		l-1.565,0.269l-0.325-1.894l3.549-0.61l1.123,6.535C68.336,66.812,67.916,67.146,67.41,67.434"/>
	<path style="clip-path:url(#SVGID_6_);fill:#FFFFFF;" d="M83.519,37.23c0.916,5.333,0.761,10.685-0.462,15.907
		c-1.181,5.045-3.303,9.758-6.308,14.01S70.01,74.973,65.648,77.77c-4.514,2.896-9.507,4.829-14.84,5.745
		c-5.333,0.917-10.685,0.761-15.907-0.461c-5.045-1.182-9.759-3.304-14.01-6.309c-4.252-3.004-7.826-6.739-10.624-11.101
		c-2.895-4.514-4.828-9.507-5.744-14.84c-0.917-5.333-0.762-10.685,0.461-15.907c1.181-5.045,3.304-9.759,6.308-14.01
		c3.005-4.252,6.74-7.826,11.101-10.623c4.515-2.896,9.508-4.829,14.841-5.745c7.708-1.325,15.557-0.387,22.699,2.71
		c6.501,2.82,12.11,7.277,16.306,12.939l-6.456,1.109l0.666,3.877l13.749-2.362L81.755,8.578l-3.877,0.666l1.461,8.5
		C74.738,11.566,68.604,6.702,61.499,3.62c-7.846-3.403-16.467-4.433-24.931-2.978c-5.855,1.006-11.339,3.129-16.299,6.31
		c-4.79,3.073-8.891,6.997-12.189,11.664C4.781,23.284,2.451,28.459,1.154,34c-1.344,5.738-1.515,11.615-0.509,17.47
		c1.006,5.855,3.13,11.338,6.311,16.298c3.073,4.79,6.997,8.891,11.664,12.19c4.667,3.298,9.843,5.629,15.384,6.926
		c5.738,1.343,11.615,1.514,17.47,0.508c5.855-1.006,11.338-3.129,16.298-6.311c4.79-3.072,8.891-6.996,12.19-11.663
		c3.298-4.668,5.629-9.844,6.926-15.384c1.343-5.738,1.514-11.616,0.508-17.47L83.519,37.23z"/>
</g>
</svg>
