<svg xmlns="http://www.w3.org/2000/svg" viewBox="0 0 612.598 531.496"><g fill="none" stroke="#fff" stroke-width="13.973" stroke-linecap="round" stroke-linejoin="round" stroke-miterlimit="10"><path d="M313.177 162.627l-25.78 13.593a17.007 17.007 0 0 0-8.506 10.682l-12.635 47.6c-3.076 11.589-15.482 17.993-26.711 13.789l-10.187-3.814c-9.824-3.678-15.221-14.242-12.445-24.358l17.329-63.148a17.006 17.006 0 0 1 7.765-10.151l40.51-23.879-17.45-8.058a25.776 25.776 0 0 0-23.491.963l-64.643 36.548a25.773 25.773 0 0 1-18.47 2.68l-43.762-10.28-33.81 151.626 76.808 29.131M369.115 244.127l90.455 51.617-20.956 36.879"/><path d="M313.177 162.627l153.55 88.919c7.565 4.381 10.182 14.041 5.863 21.642l-13.155 23.15M348.107 281.057l90.454 51.618-20.956 36.879"/><path d="M327.151 317.933l90.455 51.617-13.046 22.96c-4.361 7.675-14.134 10.336-21.785 5.931l-53.501-30.804M283.225 444.762l-35.198-20 44.368-78.08 36.879 20.956-43.412 76.398a1.935 1.935 0 0 1-2.637.726zM247.973 424.714l-36.879-20.956 43.464-76.49a1.83 1.83 0 0 1 2.494-.687l35.289 20.052-44.368 78.081zM210.889 403.625l-36.879-20.956 34.58-60.855a1.83 1.83 0 0 1 2.494-.687l35.289 20.052-35.484 62.446z"/><path d="M174.09 382.562l-35.198-20a1.933 1.933 0 0 1-.726-2.637l26.067-45.874a1.83 1.83 0 0 1 2.494-.687l35.289 20.052-27.926 49.146zM445.753 320.059l90.716-20.096-32.785-152.709-70.813 13.549a25.774 25.774 0 0 1-17.901-3.093l-81.962-48.157a25.775 25.775 0 0 0-25.472-.365l-25.018 13.751"/><path d="M600.529 316.127l-58.109 12.475-44.86-208.953 58.11-12.475zM74.622 325.68l-58.109-12.475 44.86-208.953 58.108 12.475z" stroke-width="13.972720540000001"/></g></svg>