<?xml version="1.0" encoding="iso-8859-1"?>
<svg version="1.1" id="Layer_1" xmlns="http://www.w3.org/2000/svg" xmlns:xlink="http://www.w3.org/1999/xlink" x="0px" y="0px"
	 viewBox="0 0 612.598 531.496" style="enable-background:new 0 0 612.598 531.496;" xml:space="preserve">
<g id="_x31_1_4_">
	
		<path style="fill:none;stroke:#FFFFFF;stroke-width:13.9731;stroke-linecap:round;stroke-linejoin:round;stroke-miterlimit:10;" d="
		M313.177,162.627l-25.78,13.593c-4.203,2.216-7.287,6.089-8.506,10.682l-12.635,47.6c-3.076,11.589-15.482,17.993-26.711,13.789
		l-10.187-3.814c-9.824-3.678-15.221-14.242-12.445-24.358l17.329-63.148c1.17-4.265,3.956-7.906,7.765-10.151l40.51-23.879
		l-17.45-8.058c-7.529-3.477-16.272-3.118-23.491,0.963l-64.643,36.548c-5.606,3.169-12.195,4.126-18.47,2.68l-43.762-10.28
		l-33.81,151.626l76.808,29.131"/>
	
		<polyline style="fill:none;stroke:#FFFFFF;stroke-width:13.9731;stroke-linecap:round;stroke-linejoin:round;stroke-miterlimit:10;" points="
		369.115,244.127 459.57,295.744 438.614,332.623 	"/>
	
		<path style="fill:none;stroke:#FFFFFF;stroke-width:13.9731;stroke-linecap:round;stroke-linejoin:round;stroke-miterlimit:10;" d="
		M313.177,162.627l153.55,88.919c7.565,4.381,10.182,14.041,5.863,21.642l-13.155,23.15"/>
	
		<polyline style="fill:none;stroke:#FFFFFF;stroke-width:13.9731;stroke-linecap:round;stroke-linejoin:round;stroke-miterlimit:10;" points="
		348.107,281.057 438.561,332.675 417.605,369.554 	"/>
	
		<path style="fill:none;stroke:#FFFFFF;stroke-width:13.9731;stroke-linecap:round;stroke-linejoin:round;stroke-miterlimit:10;" d="
		M327.151,317.933l90.455,51.617L404.56,392.51c-4.361,7.675-14.134,10.336-21.785,5.931l-53.501-30.804"/>
	
		<path style="fill:none;stroke:#FFFFFF;stroke-width:13.9731;stroke-linecap:round;stroke-linejoin:round;stroke-miterlimit:10;" d="
		M283.225,444.762l-35.198-20l44.368-78.08l36.879,20.956l-43.412,76.398C285.334,444.964,284.153,445.289,283.225,444.762z"/>
	
		<path style="fill:none;stroke:#FFFFFF;stroke-width:13.9731;stroke-linecap:round;stroke-linejoin:round;stroke-miterlimit:10;" d="
		M247.973,424.714l-36.879-20.956l43.464-76.49c0.499-0.878,1.615-1.186,2.494-0.687l35.289,20.052L247.973,424.714z"/>
	
		<path style="fill:none;stroke:#FFFFFF;stroke-width:13.9731;stroke-linecap:round;stroke-linejoin:round;stroke-miterlimit:10;" d="
		M210.889,403.625l-36.879-20.956l34.58-60.855c0.499-0.878,1.615-1.186,2.494-0.687l35.289,20.052L210.889,403.625z"/>
	
		<path style="fill:none;stroke:#FFFFFF;stroke-width:13.9731;stroke-linecap:round;stroke-linejoin:round;stroke-miterlimit:10;" d="
		M174.09,382.562l-35.198-20c-0.929-0.528-1.254-1.708-0.726-2.637l26.067-45.874c0.499-0.878,1.615-1.186,2.494-0.687
		l35.289,20.052L174.09,382.562z"/>
	
		<path style="fill:none;stroke:#FFFFFF;stroke-width:13.9731;stroke-linecap:round;stroke-linejoin:round;stroke-miterlimit:10;" d="
		M445.753,320.059l90.716-20.096l-32.785-152.709l-70.813,13.549c-6.145,1.176-12.507,0.076-17.901-3.093l-81.962-48.157
		c-7.833-4.602-17.51-4.741-25.472-0.365l-25.018,13.751"/>
	
		<rect x="519.315" y="111.027" transform="matrix(-0.9777 0.2099 -0.2099 -0.9777 1131.5677 315.6737)" style="fill:none;stroke:#FFFFFF;stroke-width:13.9731;stroke-linecap:round;stroke-linejoin:round;stroke-miterlimit:10;" width="59.434" height="213.719"/>
	
		<rect x="38.279" y="108.102" transform="matrix(-0.9777 -0.2099 0.2099 -0.9777 89.3564 439.4066)" style="fill:none;stroke:#FFFFFF;stroke-width:13.9731;stroke-linecap:round;stroke-linejoin:round;stroke-miterlimit:10;" width="59.434" height="213.719"/>
</g>
</svg>
